<svg xmlns="http://www.w3.org/2000/svg" xmlns:xlink="http://www.w3.org/1999/xlink" width="500" zoomAndPan="magnify" viewBox="0 0 375 374.999991" height="500" preserveAspectRatio="xMidYMid meet" version="1.0"><defs><clipPath id="122fbc2fc4"><path d="M 90 37.5 L 282 37.5 L 282 337 L 90 337 Z M 90 37.5 " clip-rule="nonzero"/></clipPath><clipPath id="b716d48b36"><path d="M 233 37.5 L 282 37.5 L 282 64 L 233 64 Z M 233 37.5 " clip-rule="nonzero"/></clipPath><clipPath id="3a38a5e547"><path d="M 90 37.5 L 282 37.5 L 282 337 L 90 337 Z M 90 37.5 " clip-rule="nonzero"/></clipPath><clipPath id="2a31d7e8f4"><path d="M 115 54 L 285 54 L 285 337.5 L 115 337.5 Z M 115 54 " clip-rule="nonzero"/></clipPath></defs><g clip-path="url(#122fbc2fc4)"><path fill="#00bfc3" d="M 260.496094 72.9375 L 260.648438 258.769531 L 260.648438 262.585938 C 260.648438 264.726562 260.570312 267.132812 260.570312 268.167969 C 260.570312 287.8125 244.527344 305.800781 224.863281 307.738281 L 130.035156 317.550781 C 128.378906 320.707031 126.679688 323.921875 125.195312 326.78125 C 122.449219 332.042969 120.378906 336.027344 120.378906 336.027344 C 120.378906 336.027344 92.765625 316.480469 92.332031 315.820312 C 91.074219 314.5625 90.226562 312.90625 90.039062 311.066406 C 90.019531 310.800781 90 310.519531 90 310.257812 L 90.601562 62.074219 C 90.601562 61.472656 90.640625 60.886719 90.789062 60.34375 C 91.863281 55.625 96.578125 52.75 101.394531 52.261719 L 249.140625 37.710938 C 249.140625 37.710938 249.929688 37.636719 250.117188 37.636719 C 251.054688 37.597656 251.867188 37.636719 252.597656 37.730469 C 253.59375 37.863281 254.441406 38.105469 255.191406 38.425781 C 255.851562 38.707031 257.054688 39.460938 257.054688 39.460938 L 258.785156 40.644531 L 281.6875 56.433594 Z M 260.496094 72.9375 " fill-opacity="1" fill-rule="nonzero"/></g><path fill="#000000" d="M 137.597656 78.855469 C 136.230469 76.863281 134.632812 74.78125 132.8125 72.945312 C 129.65625 72.242188 127.714844 69.8125 124.546875 68.777344 C 121.359375 67.742188 118.25 68.132812 115.019531 67.554688 C 114.253906 67.414062 113.445312 66.972656 112.984375 66.339844 C 112.398438 65.527344 112.566406 64.574219 112.785156 63.664062 C 113.007812 62.746094 113.351562 61.859375 113.546875 60.929688 C 113.636719 60.5 113.808594 59.847656 113.523438 59.449219 C 113.117188 58.882812 111.964844 58.964844 111.371094 59.03125 C 111.117188 59.058594 110.84375 59.183594 110.597656 59.195312 C 109.429688 59.242188 107.734375 59.507812 106.625 59.105469 C 105.117188 58.554688 106.304688 56.503906 106.207031 55.339844 C 106.0625 53.671875 104.941406 52.457031 103.292969 52.152344 C 103.230469 52.140625 103.191406 52.109375 103.136719 52.089844 L 101.394531 52.261719 C 96.582031 52.75 91.863281 55.625 90.789062 60.34375 C 90.640625 60.890625 90.601562 61.472656 90.601562 62.074219 L 90.570312 74.632812 C 92.832031 75.621094 95.597656 67.625 98.722656 72.304688 C 99.773438 73.882812 99.566406 76.527344 99.792969 78.3125 C 100.070312 80.488281 101.402344 83.894531 103.871094 81.058594 C 104.574219 80.25 105.203125 79.390625 105.847656 78.535156 C 107.308594 76.609375 110.5625 78.160156 111.601562 81.148438 C 113.1875 85.71875 114.808594 89.867188 115.132812 92.96875 C 115.605469 97.511719 120.46875 94.769531 123.183594 95.792969 C 123.476562 95.6875 123.8125 95.71875 124.101562 96.007812 C 124.164062 96.074219 124.242188 96.121094 124.308594 96.183594 C 125.03125 96.425781 125.757812 96.664062 126.503906 96.863281 C 126.773438 96.933594 126.941406 97.089844 127.046875 97.273438 C 130.265625 97.472656 134.285156 95.109375 136.433594 93.511719 C 141.539062 89.714844 140.914062 83.695312 137.597656 78.855469 Z M 137.597656 78.855469 " fill-opacity="1" fill-rule="nonzero"/><path fill="#000000" d="M 125.1875 326.78125 C 122.445312 332.042969 120.378906 336.027344 120.378906 336.027344 C 120.378906 336.027344 92.761719 316.480469 92.332031 315.820312 C 91.070312 314.5625 90.226562 312.90625 90.039062 311.066406 L 90.085938 272.71875 C 92.269531 274.429688 93.234375 276.515625 93.96875 279.390625 C 94.417969 281.195312 94.003906 283.394531 95.058594 285.046875 C 96.183594 286.835938 98.105469 287.304688 99.476562 285.367188 C 99.8125 284.917969 101.140625 281.636719 102.136719 283.234375 C 102.585938 283.96875 103.328125 285.066406 103.515625 285.914062 C 103.949219 287.867188 104.210938 289.824219 104.925781 291.722656 C 105.566406 293.453125 107.578125 295.21875 109.476562 293.882812 C 111.242188 292.660156 114.644531 289.371094 115.734375 293.394531 C 116.769531 297.25 117.707031 301.140625 118.796875 304.992188 C 120.847656 312.285156 123.101562 319.503906 125.1875 326.78125 Z M 125.1875 326.78125 " fill-opacity="1" fill-rule="nonzero"/><g clip-path="url(#b716d48b36)"><path fill="#000000" d="M 247.328125 41.265625 C 248.542969 41.238281 250.898438 41.050781 251.558594 42.359375 C 251.953125 43.140625 251.84375 44.007812 251.199219 44.613281 C 248.269531 47.367188 251.636719 48.773438 254.175781 48.972656 C 256.183594 49.132812 259.273438 48.984375 261.152344 50.050781 C 263.578125 51.433594 263.273438 52.460938 261.972656 54.621094 C 259.046875 59.5 268.984375 61.382812 271.734375 62.464844 C 272.214844 62.652344 272.695312 62.839844 273.171875 63.027344 L 281.652344 56.433594 L 258.773438 40.640625 L 257.054688 39.453125 C 257.054688 39.453125 255.847656 38.714844 255.1875 38.425781 C 254.433594 38.097656 253.601562 37.867188 252.597656 37.738281 C 251.871094 37.644531 251.058594 37.609375 250.125 37.628906 C 249.933594 37.636719 249.136719 37.707031 249.136719 37.707031 L 233.941406 39.203125 C 237.253906 42.171875 242.875 41.367188 247.328125 41.265625 Z M 247.328125 41.265625 " fill-opacity="1" fill-rule="nonzero"/></g><path fill="#000000" d="M 222.957031 41.105469 L 227.042969 43.996094 C 227.789062 44.507812 227.65625 45.019531 226.75 45.101562 L 132.558594 54.445312 C 131.664062 54.546875 130.289062 54.199219 129.546875 53.703125 L 125.246094 50.839844 " fill-opacity="1" fill-rule="nonzero"/><path fill="#000000" d="M 132.222656 55.402344 C 131.175781 55.402344 129.847656 55.035156 129.023438 54.484375 L 124.722656 51.621094 L 125.765625 50.058594 L 130.066406 52.921875 C 130.632812 53.300781 131.785156 53.574219 132.453125 53.511719 L 225.78125 44.253906 L 222.414062 41.875 L 223.5 40.339844 L 227.585938 43.226562 C 228.574219 43.902344 228.503906 44.652344 228.425781 44.945312 C 228.351562 45.238281 228.042969 45.925781 226.832031 46.039062 L 132.648438 55.378906 C 132.515625 55.394531 132.371094 55.402344 132.222656 55.402344 Z M 132.222656 55.402344 " fill-opacity="1" fill-rule="nonzero"/><path fill="#ff2273" d="M 223.882812 44.839844 L 139.257812 53.234375 C 138.363281 53.335938 136.988281 52.988281 136.242188 52.476562 L 131.78125 49.5 L 219.964844 40.757812 L 224.183594 43.734375 C 224.925781 44.242188 224.796875 44.757812 223.882812 44.839844 Z M 223.882812 44.839844 " fill-opacity="1" fill-rule="nonzero"/><g clip-path="url(#3a38a5e547)"><path fill="#000000" d="M 250.652344 39.503906 C 251.285156 39.503906 251.84375 39.535156 252.359375 39.601562 C 253.148438 39.703125 253.808594 39.875 254.4375 40.148438 C 254.816406 40.316406 255.597656 40.765625 256.027344 41.03125 L 257.707031 42.1875 L 278.472656 56.523438 L 259.132812 71.445312 L 258.246094 72.011719 L 258.246094 72.929688 L 258.5 258.757812 L 258.566406 262.578125 L 258.597656 264.613281 C 258.59375 266.09375 258.605469 267.453125 258.605469 268.167969 C 258.605469 287.109375 243.375 304.019531 224.632812 305.863281 L 129.8125 315.6875 L 128.8125 315.792969 L 128.347656 316.683594 C 124.925781 323.207031 121.382812 330.019531 119.707031 333.246094 C 109.320312 325.890625 95.042969 315.699219 93.699219 314.539062 L 93.667969 314.507812 C 92.511719 313.320312 91.875 311.8125 91.878906 310.265625 C 91.882812 309.945312 92.011719 278.125 91.96875 273.574219 C 91.921875 269.050781 92.476562 64.144531 92.484375 62.074219 C 92.484375 61.675781 92.5 61.222656 92.601562 60.871094 L 92.617188 60.8125 L 92.628906 60.640625 C 93.445312 56.988281 98.984375 53.738281 103.199219 53.738281 L 103.257812 53.738281 L 103.320312 53.847656 L 249.179688 39.535156 C 249.183594 39.535156 249.964844 39.488281 250.167969 39.480469 C 250.335938 39.476562 250.496094 39.503906 250.652344 39.503906 M 250.652344 37.625 C 250.480469 37.625 250.300781 37.625 250.121094 37.632812 C 249.929688 37.636719 249.011719 37.71875 249.011719 37.71875 L 103.136719 52.089844 C 98.339844 52.25 91.851562 55.625 90.796875 60.347656 C 90.636719 60.890625 90.605469 61.464844 90.605469 62.070312 C 90.605469 62.070312 90.042969 269.003906 90.089844 273.59375 C 90.136719 278.183594 90 310.257812 90 310.257812 C 89.996094 312.410156 90.910156 314.367188 92.324219 315.816406 C 92.765625 316.484375 120.378906 336.027344 120.378906 336.027344 C 120.378906 336.027344 125.3125 326.519531 130.011719 317.558594 L 224.835938 307.734375 C 244.503906 305.796875 260.507812 287.820312 260.507812 268.171875 C 260.507812 267.132812 260.519531 264.726562 260.523438 262.582031 L 260.539062 258.765625 L 260.441406 72.929688 L 281.652344 56.433594 L 258.773438 40.640625 L 257.054688 39.453125 C 257.054688 39.453125 255.847656 38.714844 255.1875 38.425781 C 254.433594 38.097656 253.601562 37.867188 252.597656 37.738281 C 252.011719 37.664062 251.371094 37.625 250.652344 37.625 Z M 250.652344 37.625 " fill-opacity="1" fill-rule="nonzero"/></g><path fill="#000000" d="M 101.984375 320.894531 L 100.574219 320.894531 L 101.175781 69.585938 C 101.179688 69.007812 101.207031 68.328125 101.398438 67.667969 C 102.574219 62.398438 107.871094 59.550781 112.597656 59.085938 L 260.34375 44.523438 L 263.8125 44.445312 L 263.84375 45.855469 L 260.429688 45.929688 L 112.734375 60.492188 C 108.515625 60.90625 103.796875 63.394531 102.761719 68.019531 C 102.609375 68.550781 102.589844 69.085938 102.585938 69.589844 Z M 101.984375 320.894531 " fill-opacity="1" fill-rule="nonzero"/><path fill="#000000" d="M 116.679688 83.203125 L 101.324219 71.957031 L 102.433594 70.441406 L 117.789062 81.6875 Z M 116.679688 83.203125 " fill-opacity="1" fill-rule="nonzero"/><path fill="#000000" d="M 113.136719 162.554688 C 113.136719 162.882812 112.976562 162.992188 112.714844 162.792969 L 106.289062 157.921875 C 106.027344 157.722656 105.941406 157.292969 105.941406 156.960938 L 105.941406 130.273438 C 105.941406 129.945312 106.054688 129.835938 106.316406 130.03125 L 112.765625 134.90625 C 113.03125 135.101562 113.136719 135.535156 113.136719 135.863281 Z M 113.136719 162.554688 " fill-opacity="1" fill-rule="nonzero"/><path fill="#000000" d="M 98.671875 111.648438 C 98.671875 114.078125 97.679688 115.320312 96.449219 114.417969 C 95.222656 113.515625 94.226562 110.8125 94.226562 108.382812 C 94.226562 105.949219 95.222656 104.710938 96.449219 105.613281 C 97.679688 106.519531 98.671875 109.214844 98.671875 111.648438 Z M 98.671875 111.648438 " fill-opacity="1" fill-rule="nonzero"/><path fill="#000000" d="M 273.523438 56.441406 L 258.6875 46.367188 L 259.742188 44.8125 L 274.578125 54.886719 Z M 273.523438 56.441406 " fill-opacity="1" fill-rule="nonzero"/><path fill="#ffd33b" d="M 283.8125 276.015625 L 284.277344 63.707031 C 284.289062 58.539062 280.066406 55.652344 274.894531 56.148438 L 126.394531 70.386719 C 121.226562 70.878906 115.972656 73.816406 115.957031 78.988281 L 116.089844 327.175781 C 116.078125 332.347656 119.613281 336.074219 124.78125 335.570312 L 239.140625 324.40625 C 240.34375 324.289062 246.890625 323.648438 248.773438 323.46875 C 267.933594 321.628906 283.625 304.589844 283.675781 285.425781 C 283.679688 283.550781 283.808594 277.222656 283.8125 276.015625 Z M 283.8125 276.015625 " fill-opacity="1" fill-rule="nonzero"/><path fill="#00bfc3" d="M 284.632812 258.082031 L 284.632812 283.269531 C 284.632812 302.425781 269.683594 321.996094 250.53125 323.878906 L 241.050781 324.804688 L 197.640625 329.183594 Z M 284.632812 258.082031 " fill-opacity="1" fill-rule="nonzero"/><path fill="#000000" d="M 234.773438 256.628906 C 229.566406 257.082031 224.851562 255.089844 222.203125 251.132812 C 217.8125 244.589844 220.296875 234.847656 227.746094 229.414062 L 249.984375 213.1875 C 252.683594 211.21875 255.757812 210.011719 258.875 209.707031 C 264.09375 209.191406 268.792969 211.246094 271.445312 215.203125 C 275.832031 221.746094 273.347656 231.488281 265.902344 236.921875 L 243.660156 253.148438 C 240.964844 255.121094 237.886719 256.324219 234.773438 256.628906 Z M 258.875 211.585938 C 256.117188 211.859375 253.386719 212.925781 250.984375 214.679688 L 228.75 230.90625 C 222.179688 235.699219 219.953125 244.253906 223.792969 249.976562 C 226.097656 253.414062 230.199219 255.199219 234.773438 254.75 C 237.53125 254.480469 240.261719 253.410156 242.660156 251.65625 L 264.902344 235.429688 C 271.46875 230.636719 273.691406 222.082031 269.855469 216.359375 C 267.546875 212.921875 263.445312 211.136719 258.875 211.585938 Z M 258.875 211.585938 " fill-opacity="1" fill-rule="nonzero"/><path fill="#ff2273" d="M 273.238281 180.667969 C 273.238281 185.859375 268.929688 190.480469 263.734375 190.992188 L 137.742188 203.386719 C 132.550781 203.898438 128.316406 200.101562 128.316406 194.910156 L 127.363281 96.128906 C 127.363281 90.941406 132.648438 86.222656 137.839844 85.710938 L 262.949219 74.0625 C 268.140625 73.554688 273.238281 77.730469 273.238281 82.921875 Z M 273.238281 180.667969 " fill-opacity="1" fill-rule="nonzero"/><path fill="#000000" d="M 262.796875 191.082031 L 137.058594 203.476562 C 131.359375 204.039062 126.929688 199.855469 126.929688 194.15625 L 126.929688 96.410156 C 126.929688 90.710938 131.308594 85.617188 137.007812 85.054688 L 262.925781 72.660156 C 268.625 72.097656 273.238281 76.28125 273.238281 81.980469 L 273.238281 179.726562 C 273.238281 185.429688 268.496094 190.523438 262.796875 191.082031 Z M 136.96875 86.933594 C 132.304688 87.394531 128.726562 91.5625 128.726562 96.226562 L 128.726562 193.972656 C 128.726562 198.636719 132.304688 202.058594 136.96875 201.597656 L 262.945312 189.203125 C 267.609375 188.746094 271.441406 184.578125 271.441406 179.914062 L 271.441406 82.164062 C 271.441406 77.5 267.609375 74.082031 262.945312 74.539062 Z M 136.96875 86.933594 " fill-opacity="1" fill-rule="nonzero"/><path fill="#00bfc3" d="M 250.476562 173.488281 C 250.476562 178.679688 246.265625 183.300781 241.074219 183.8125 L 159.773438 193.101562 C 154.582031 193.613281 150.847656 189.675781 150.847656 184.484375 L 149.921875 109.25 C 149.921875 104.058594 154.503906 99.46875 159.695312 98.960938 L 240.433594 91.035156 C 245.625 90.523438 249.578125 93.511719 249.578125 98.703125 Z M 250.476562 173.488281 " fill-opacity="1" fill-rule="nonzero"/><path fill="#ffffff" d="M 206.113281 94.402344 L 182.707031 96.703125 C 172.042969 111.84375 161.417969 127.015625 150.324219 141.839844 L 150.78125 179.019531 C 167.453125 149.691406 186.082031 121.539062 206.113281 94.402344 Z M 206.113281 94.402344 " fill-opacity="1" fill-rule="nonzero"/><path fill="#ffffff" d="M 248.347656 94.335938 C 246.921875 92.15625 244.367188 90.949219 241.285156 91.019531 C 218.28125 123.542969 196.125 156.679688 176.261719 191.21875 L 187.191406 189.96875 C 206.039062 157.179688 225.664062 124.601562 248.347656 94.335938 Z M 248.347656 94.335938 " fill-opacity="1" fill-rule="nonzero"/><path fill="#ffffff" d="M 250.070312 139.886719 L 249.859375 122.125 C 235.339844 143.929688 221.335938 166.085938 206.605469 187.75 L 218.140625 186.433594 C 228.261719 170.566406 239.191406 155.242188 250.070312 139.886719 Z M 250.070312 139.886719 " fill-opacity="1" fill-rule="nonzero"/><path fill="#000000" d="M 240.425781 185.785156 L 159.523438 193.738281 C 153.824219 194.300781 149.113281 190.121094 149.113281 184.417969 L 149.113281 109.226562 C 149.113281 103.527344 153.679688 98.433594 159.378906 97.871094 L 240.460938 89.917969 C 246.164062 89.355469 251.050781 93.539062 251.050781 99.238281 L 251.050781 174.429688 C 251.050781 180.128906 246.125 185.222656 240.425781 185.785156 Z M 159.339844 99.75 C 154.675781 100.210938 150.914062 104.378906 150.914062 109.042969 L 150.914062 184.234375 C 150.914062 188.898438 154.671875 192.320312 159.339844 191.859375 L 240.179688 183.90625 C 244.84375 183.445312 248.652344 179.277344 248.652344 174.613281 L 248.652344 99.421875 C 248.652344 94.757812 244.84375 91.339844 240.179688 91.796875 Z M 159.339844 99.75 " fill-opacity="1" fill-rule="nonzero"/><path fill="#00bfc3" d="M 176.167969 231.292969 L 165.90625 232.273438 L 165.90625 221.472656 C 165.90625 218.359375 164.425781 217.425781 161.3125 217.734375 L 155.507812 218.289062 C 152.394531 218.59375 149.113281 220.023438 149.113281 223.136719 L 149.113281 233.9375 L 140.328125 234.804688 C 137.214844 235.113281 134.125 236.542969 134.125 239.65625 L 134.125 245.296875 C 134.125 248.410156 137.214844 252.03125 140.328125 251.726562 L 149.113281 250.859375 L 149.113281 258.855469 C 149.113281 261.96875 152.625 265.589844 155.738281 265.285156 L 161.117188 264.726562 C 164.230469 264.421875 165.90625 260.304688 165.90625 257.1875 L 165.90625 249.191406 L 176.167969 248.210938 C 179.28125 247.90625 181.496094 243.785156 181.496094 240.671875 L 181.496094 235.035156 C 181.496094 231.917969 179.28125 230.984375 176.167969 231.292969 Z M 176.167969 231.292969 " fill-opacity="1" fill-rule="nonzero"/><path fill="#000000" d="M 162.042969 265.667969 L 156.34375 266.222656 C 152.550781 266.59375 149.113281 262.460938 149.113281 258.945312 L 149.113281 251.886719 L 141.265625 252.664062 C 137.472656 253.035156 134.125 248.90625 134.125 245.386719 L 134.125 239.746094 C 134.125 236.554688 136.847656 234.300781 141.265625 233.867188 L 149.113281 233.089844 L 149.113281 223.230469 C 149.113281 220.035156 151.789062 217.78125 156.207031 217.347656 L 162.078125 216.792969 C 167.03125 216.304688 168.304688 219.019531 168.304688 221.378906 L 168.304688 231.242188 L 177.324219 230.351562 C 182.277344 229.863281 183.292969 232.574219 183.292969 234.9375 L 183.292969 240.574219 C 183.292969 243.921875 181.234375 248.761719 177.324219 249.148438 L 168.304688 250.039062 L 168.304688 257.09375 C 168.304688 260.441406 165.953125 265.28125 162.042969 265.667969 Z M 141.1875 235.746094 C 139.945312 235.867188 135.921875 236.503906 135.921875 239.5625 L 135.921875 245.203125 C 135.921875 247.753906 138.5625 251.042969 141.1875 250.785156 L 150.914062 249.824219 L 150.914062 258.761719 C 150.914062 261.3125 153.546875 264.601562 156.167969 264.34375 L 161.800781 263.789062 C 164.347656 263.535156 165.90625 259.828125 165.90625 257.28125 L 165.90625 248.34375 L 177.109375 247.269531 C 179.65625 247.019531 181.496094 243.3125 181.496094 240.761719 L 181.496094 235.125 C 181.496094 233.410156 180.722656 231.875 177.109375 232.230469 L 165.90625 233.304688 L 165.90625 221.566406 C 165.90625 219.851562 165.398438 218.316406 161.785156 218.671875 L 156.175781 219.230469 C 154.933594 219.351562 150.914062 219.988281 150.914062 223.046875 L 150.914062 234.785156 Z M 141.1875 235.746094 " fill-opacity="1" fill-rule="nonzero"/><path fill="#ff2273" d="M 157.9375 247.28125 C 154.0625 247.664062 150.910156 244.820312 150.910156 240.945312 C 150.910156 237.070312 154.0625 233.609375 157.9375 233.226562 C 161.8125 232.84375 164.96875 235.6875 164.96875 239.5625 C 164.96875 243.4375 161.8125 246.902344 157.9375 247.28125 Z M 157.9375 235.105469 C 155.097656 235.386719 152.789062 237.921875 152.789062 240.761719 C 152.789062 243.601562 155.101562 245.683594 157.9375 245.402344 C 160.777344 245.125 163.089844 242.585938 163.089844 239.746094 C 163.085938 236.90625 160.777344 234.828125 157.9375 235.105469 Z M 157.9375 235.105469 " fill-opacity="1" fill-rule="nonzero"/><path fill="#00bfc3" d="M 181.003906 276.960938 C 181.570312 277.765625 181.320312 278.949219 180.449219 279.585938 L 165.851562 290.238281 C 164.976562 290.875 163.796875 290.738281 163.226562 289.929688 L 162.371094 288.71875 C 161.800781 287.910156 162.050781 286.730469 162.925781 286.089844 L 177.519531 275.4375 C 178.394531 274.800781 179.578125 274.9375 180.144531 275.746094 Z M 181.003906 276.960938 " fill-opacity="1" fill-rule="nonzero"/><path fill="#000000" d="M 164.835938 291.570312 C 163.867188 291.664062 162.972656 291.277344 162.441406 290.527344 L 161.585938 289.3125 C 161.171875 288.726562 161.03125 287.988281 161.1875 287.234375 C 161.347656 286.480469 161.785156 285.8125 162.425781 285.347656 L 177.019531 274.691406 C 178.285156 273.765625 180.109375 273.984375 180.929688 275.152344 L 181.785156 276.367188 C 182.203125 276.953125 182.34375 277.691406 182.183594 278.445312 C 182.027344 279.195312 181.589844 279.867188 180.949219 280.332031 L 166.351562 290.984375 C 165.902344 291.3125 165.375 291.515625 164.835938 291.570312 Z M 178.535156 275.988281 C 178.351562 276.003906 178.171875 276.074219 178.023438 276.183594 L 163.429688 286.835938 C 163.21875 286.988281 163.078125 287.207031 163.027344 287.449219 C 162.976562 287.691406 163.019531 287.933594 163.15625 288.121094 L 164.011719 289.335938 C 164.289062 289.730469 164.917969 289.808594 165.351562 289.492188 L 179.949219 278.839844 C 180.15625 278.6875 180.296875 278.472656 180.347656 278.226562 C 180.398438 277.984375 180.355469 277.746094 180.21875 277.554688 L 179.363281 276.339844 C 179.183594 276.085938 178.875 275.953125 178.535156 275.988281 Z M 178.535156 275.988281 " fill-opacity="1" fill-rule="nonzero"/><path fill="#00bfc3" d="M 198.480469 277.390625 C 199.050781 278.195312 198.800781 279.378906 197.925781 280.015625 L 183.328125 290.667969 C 182.449219 291.304688 181.269531 291.167969 180.703125 290.359375 L 179.84375 289.148438 C 179.277344 288.339844 179.527344 287.15625 180.398438 286.519531 L 194.996094 275.867188 C 195.871094 275.230469 197.050781 275.367188 197.621094 276.175781 Z M 198.480469 277.390625 " fill-opacity="1" fill-rule="nonzero"/><path fill="#000000" d="M 182.3125 292 C 181.339844 292.09375 180.445312 291.703125 179.917969 290.953125 L 179.0625 289.742188 C 178.644531 289.152344 178.503906 288.414062 178.664062 287.664062 C 178.820312 286.910156 179.261719 286.242188 179.898438 285.773438 L 194.496094 275.121094 C 195.761719 274.199219 197.582031 274.414062 198.40625 275.578125 L 199.261719 276.792969 C 199.679688 277.382812 199.824219 278.121094 199.664062 278.875 C 199.503906 279.625 199.066406 280.296875 198.425781 280.761719 L 183.828125 291.414062 C 183.375 291.742188 182.851562 291.945312 182.3125 292 Z M 196.011719 276.414062 C 195.828125 276.433594 195.648438 276.503906 195.496094 276.613281 L 180.902344 287.265625 C 180.695312 287.414062 180.554688 287.632812 180.503906 287.878906 C 180.449219 288.121094 180.496094 288.359375 180.628906 288.550781 L 181.484375 289.765625 C 181.765625 290.15625 182.394531 290.234375 182.828125 289.921875 L 197.425781 279.269531 C 197.632812 279.117188 197.773438 278.902344 197.828125 278.65625 C 197.878906 278.414062 197.832031 278.175781 197.695312 277.984375 L 196.835938 276.769531 C 196.65625 276.515625 196.347656 276.382812 196.011719 276.414062 Z M 196.011719 276.414062 " fill-opacity="1" fill-rule="nonzero"/><path fill="#000000" d="M 231.902344 312.574219 C 231.464844 312.617188 231.035156 312.457031 230.761719 312.109375 L 216.347656 293.800781 C 215.886719 293.214844 216.023438 292.320312 216.65625 291.796875 C 217.28125 291.277344 218.164062 291.328125 218.625 291.910156 L 233.039062 310.222656 C 233.496094 310.804688 233.359375 311.699219 232.730469 312.222656 C 232.480469 312.425781 232.1875 312.542969 231.902344 312.574219 Z M 231.902344 312.574219 " fill-opacity="1" fill-rule="nonzero"/><path fill="#000000" d="M 239.601562 306.191406 C 239.167969 306.234375 238.738281 306.074219 238.464844 305.722656 L 224.046875 287.410156 C 223.585938 286.828125 223.722656 285.933594 224.351562 285.410156 C 224.980469 284.890625 225.863281 284.941406 226.324219 285.523438 L 240.742188 303.835938 C 241.199219 304.417969 241.0625 305.316406 240.433594 305.835938 C 240.183594 306.042969 239.890625 306.160156 239.601562 306.191406 Z M 239.601562 306.191406 " fill-opacity="1" fill-rule="nonzero"/><path fill="#000000" d="M 247.304688 299.800781 C 246.867188 299.84375 246.441406 299.6875 246.164062 299.335938 L 231.75 281.023438 C 231.289062 280.441406 231.425781 279.542969 232.054688 279.023438 C 232.683594 278.5 233.566406 278.550781 234.023438 279.136719 L 248.441406 297.449219 C 248.898438 298.03125 248.765625 298.925781 248.132812 299.449219 C 247.882812 299.65625 247.59375 299.773438 247.304688 299.800781 Z M 247.304688 299.800781 " fill-opacity="1" fill-rule="nonzero"/><path fill="#000000" d="M 255.007812 293.417969 C 254.574219 293.457031 254.144531 293.300781 253.867188 292.949219 L 239.449219 274.636719 C 238.992188 274.054688 239.128906 273.160156 239.757812 272.636719 C 240.386719 272.117188 241.269531 272.167969 241.726562 272.75 L 256.144531 291.0625 C 256.605469 291.648438 256.46875 292.542969 255.839844 293.0625 C 255.585938 293.269531 255.296875 293.386719 255.007812 293.417969 Z M 255.007812 293.417969 " fill-opacity="1" fill-rule="nonzero"/><path fill="#000000" d="M 262.707031 287.03125 C 262.273438 287.074219 261.84375 286.914062 261.570312 286.566406 L 247.148438 268.253906 C 246.691406 267.671875 246.828125 266.773438 247.457031 266.253906 C 248.085938 265.730469 248.96875 265.78125 249.425781 266.367188 L 263.847656 284.679688 C 264.304688 285.261719 264.167969 286.160156 263.539062 286.679688 C 263.289062 286.886719 262.996094 287.003906 262.707031 287.03125 Z M 262.707031 287.03125 " fill-opacity="1" fill-rule="nonzero"/><path fill="#000000" d="M 270.410156 280.644531 C 269.972656 280.6875 269.546875 280.527344 269.269531 280.179688 L 254.855469 261.863281 C 254.394531 261.28125 254.53125 260.386719 255.160156 259.863281 C 255.789062 259.34375 256.671875 259.394531 257.132812 259.976562 L 271.546875 278.289062 C 272.007812 278.875 271.871094 279.769531 271.242188 280.289062 C 270.988281 280.496094 270.699219 280.617188 270.410156 280.644531 Z M 270.410156 280.644531 " fill-opacity="1" fill-rule="nonzero"/><path fill="#ff2273" d="M 243.230469 242.398438 C 243.230469 247.152344 239.375 251.382812 234.625 251.851562 C 229.871094 252.320312 226.015625 248.847656 226.015625 244.09375 C 226.015625 239.339844 229.871094 235.109375 234.625 234.640625 C 239.375 234.171875 243.230469 237.644531 243.230469 242.398438 Z M 243.230469 242.398438 " fill-opacity="1" fill-rule="nonzero"/><path fill="#000000" d="M 234.625 252.792969 C 229.359375 253.308594 225.078125 249.449219 225.078125 244.183594 C 225.078125 238.921875 229.359375 234.21875 234.625 233.699219 C 239.886719 233.179688 244.167969 237.042969 244.167969 242.304688 C 244.167969 247.570312 239.886719 252.273438 234.625 252.792969 Z M 234.625 235.578125 C 230.394531 235.996094 226.957031 239.773438 226.957031 244 C 226.957031 248.226562 230.394531 251.328125 234.625 250.910156 C 238.851562 250.496094 242.289062 246.71875 242.289062 242.492188 C 242.289062 238.265625 238.851562 235.164062 234.625 235.578125 Z M 234.625 235.578125 " fill-opacity="1" fill-rule="nonzero"/><path fill="#ff2273" d="M 269.050781 222.105469 C 269.050781 226.855469 265.199219 231.089844 260.445312 231.558594 C 255.695312 232.023438 251.839844 228.550781 251.839844 223.796875 C 251.839844 219.046875 255.695312 214.8125 260.445312 214.347656 C 265.199219 213.878906 269.050781 217.351562 269.050781 222.105469 Z M 269.050781 222.105469 " fill-opacity="1" fill-rule="nonzero"/><path fill="#000000" d="M 260.445312 232.496094 C 255.183594 233.015625 250.898438 229.152344 250.898438 223.890625 C 250.898438 218.628906 255.183594 213.921875 260.445312 213.40625 C 265.707031 212.886719 269.992188 216.75 269.992188 222.011719 C 269.992188 227.277344 265.710938 231.980469 260.445312 232.496094 Z M 260.445312 215.285156 C 256.21875 215.703125 252.78125 219.480469 252.78125 223.707031 C 252.78125 227.933594 256.21875 231.03125 260.445312 230.617188 C 264.675781 230.203125 268.109375 226.421875 268.109375 222.195312 C 268.109375 217.972656 264.671875 214.871094 260.445312 215.285156 Z M 260.445312 215.285156 " fill-opacity="1" fill-rule="nonzero"/><path fill="#000000" d="M 227.917969 85.480469 L 171.523438 91.03125 C 171.003906 91.082031 170.585938 90.703125 170.585938 90.183594 C 170.585938 89.664062 171.003906 89.203125 171.523438 89.148438 L 227.917969 83.601562 C 228.4375 83.546875 228.855469 83.929688 228.855469 84.449219 C 228.859375 84.96875 228.4375 85.429688 227.917969 85.480469 Z M 227.917969 85.480469 " fill-opacity="1" fill-rule="nonzero"/><path fill="#000000" d="M 141.253906 119.078125 C 141.253906 120.292969 140.269531 121.367188 139.0625 121.488281 C 137.847656 121.609375 136.867188 120.722656 136.867188 119.511719 C 136.867188 118.300781 137.847656 117.222656 139.0625 117.101562 C 140.269531 116.984375 141.253906 117.867188 141.253906 119.078125 Z M 141.253906 119.078125 " fill-opacity="1" fill-rule="nonzero"/><path fill="#000000" d="M 145.207031 127.457031 L 133.929688 128.566406 C 133.410156 128.617188 132.992188 128.238281 132.992188 127.71875 C 132.992188 127.199219 133.410156 126.738281 133.929688 126.6875 L 145.207031 125.574219 C 145.726562 125.523438 146.148438 125.90625 146.148438 126.421875 C 146.148438 126.941406 145.726562 127.40625 145.207031 127.457031 Z M 145.207031 127.457031 " fill-opacity="1" fill-rule="nonzero"/><path fill="#000000" d="M 284.632812 66.773438 L 117.335938 83.238281 L 117.335938 81.355469 L 284.632812 64.894531 Z M 284.632812 66.773438 " fill-opacity="1" fill-rule="nonzero"/><g clip-path="url(#2a31d7e8f4)"><path fill="#000000" d="M 125.765625 337.363281 L 125.75 337.363281 C 119.996094 337.363281 115.535156 332.921875 115.535156 327.328125 L 115.535156 79.199219 C 115.535156 73.332031 120.828125 69.722656 126.261719 69.1875 L 274.660156 54.574219 C 280.554688 53.996094 284.949219 57.699219 284.949219 63.195312 L 285 275.683594 L 284.972656 279.5 C 284.964844 281.640625 284.949219 284.046875 284.949219 285.085938 C 284.949219 304.734375 268.945312 322.675781 249.273438 324.609375 Z M 126.21875 71.066406 C 121.863281 71.496094 117.335938 74.167969 117.335938 79.015625 L 117.335938 327.140625 C 117.335938 331.71875 120.933594 335.191406 126.929688 334.722656 L 126.929688 335.664062 L 126.351562 334.722656 L 249.566406 322.351562 C 268.199219 320.515625 283.210938 303.882812 283.210938 285.269531 C 283.210938 284.226562 283.148438 281.820312 283.15625 279.675781 L 283.132812 275.867188 L 283.039062 63.378906 C 283.035156 58.953125 279.472656 55.976562 274.648438 56.453125 Z M 126.21875 71.066406 " fill-opacity="1" fill-rule="nonzero"/></g><path fill="#000000" d="M 126.777344 57.460938 C 127.050781 57.644531 127.007812 57.820312 126.679688 57.851562 L 116.652344 58.835938 C 116.324219 58.871094 115.828125 58.746094 115.554688 58.5625 L 112.8125 56.734375 C 112.539062 56.550781 112.582031 56.375 112.910156 56.34375 L 122.941406 55.355469 C 123.269531 55.324219 123.761719 55.445312 124.035156 55.628906 Z M 126.777344 57.460938 " fill-opacity="1" fill-rule="nonzero"/><path fill="#000000" d="M 117.574219 59.667969 C 116.363281 59.667969 114.878906 59.246094 113.96875 58.636719 L 113.355469 58.226562 C 112.316406 57.535156 112.316406 56.800781 112.410156 56.429688 C 112.503906 56.054688 112.847656 55.40625 114.089844 55.285156 L 121.574219 54.546875 C 122.8125 54.429688 124.59375 54.875 125.621094 55.558594 L 126.234375 55.964844 C 127.273438 56.660156 127.273438 57.394531 127.179688 57.769531 C 127.085938 58.144531 126.742188 58.789062 125.496094 58.910156 L 118.015625 59.648438 C 117.875 59.660156 117.730469 59.667969 117.574219 59.667969 Z M 115.023438 57.082031 C 115.695312 57.523438 116.984375 57.863281 117.832031 57.777344 L 124.566406 57.113281 C 123.894531 56.675781 122.601562 56.332031 121.757812 56.417969 Z M 115.023438 57.082031 " fill-opacity="1" fill-rule="nonzero"/><path fill="#ff2273" d="M 121.796875 57.9375 C 122.066406 58.125 122.019531 58.308594 121.691406 58.34375 L 116.652344 58.839844 C 116.324219 58.871094 115.828125 58.75 115.554688 58.566406 L 112.8125 56.734375 C 112.539062 56.554688 112.582031 56.375 112.910156 56.34375 L 118.132812 55.832031 C 118.460938 55.796875 118.949219 55.925781 119.21875 56.117188 Z M 121.796875 57.9375 " fill-opacity="1" fill-rule="nonzero"/><path fill="#000000" d="M 150.015625 71.453125 C 149.496094 71.453125 149.113281 71.035156 149.113281 70.515625 L 149.113281 68.769531 L 141.523438 63.339844 C 141.105469 63.035156 140.972656 62.449219 141.277344 62.027344 C 141.578125 61.605469 142.144531 61.507812 142.570312 61.816406 L 150.5 67.527344 C 150.746094 67.703125 150.914062 67.988281 150.914062 68.289062 L 150.914062 70.515625 C 150.914062 71.03125 150.535156 71.453125 150.015625 71.453125 Z M 150.015625 71.453125 " fill-opacity="1" fill-rule="nonzero"/><path fill="#000000" d="M 142.820312 71.453125 C 142.300781 71.453125 141.917969 71.035156 141.917969 70.515625 L 141.917969 68.769531 L 134.820312 63.808594 C 134.398438 63.507812 134.1875 62.917969 134.492188 62.496094 C 134.792969 62.078125 135.320312 61.980469 135.746094 62.285156 L 143.164062 67.527344 C 143.40625 67.703125 143.71875 67.988281 143.71875 68.289062 L 143.71875 70.515625 C 143.71875 71.03125 143.339844 71.453125 142.820312 71.453125 Z M 142.820312 71.453125 " fill-opacity="1" fill-rule="nonzero"/><path fill="#000000" d="M 136.820312 73.332031 C 136.304688 73.332031 135.921875 72.914062 135.921875 72.394531 L 135.921875 70.648438 L 128.347656 65.21875 C 127.929688 64.914062 127.804688 64.328125 128.109375 63.90625 C 128.414062 63.484375 128.984375 63.390625 129.410156 63.695312 L 137.324219 69.40625 C 137.566406 69.582031 137.722656 69.867188 137.722656 70.167969 L 137.722656 72.394531 C 137.722656 72.914062 137.34375 73.332031 136.820312 73.332031 Z M 136.820312 73.332031 " fill-opacity="1" fill-rule="nonzero"/></svg>