<svg xmlns="http://www.w3.org/2000/svg" xmlns:xlink="http://www.w3.org/1999/xlink" width="500" zoomAndPan="magnify" viewBox="0 0 375 374.999991" height="500" preserveAspectRatio="xMidYMid meet" version="1.0"><defs><clipPath id="4a64e74b64"><path d="M 289 272 L 323.605469 272 L 323.605469 312 L 289 312 Z M 289 272 " clip-rule="nonzero"/></clipPath><clipPath id="320deecd3a"><path d="M 312 221 L 323.605469 221 L 323.605469 261 L 312 261 Z M 312 221 " clip-rule="nonzero"/></clipPath><clipPath id="ee2c33520d"><path d="M 289 119 L 323.605469 119 L 323.605469 160 L 289 160 Z M 289 119 " clip-rule="nonzero"/></clipPath><clipPath id="c7e0dc1f97"><path d="M 289 170 L 323.605469 170 L 323.605469 210 L 289 210 Z M 289 170 " clip-rule="nonzero"/></clipPath><clipPath id="69d5ddbbf0"><path d="M 312 68 L 323.605469 68 L 323.605469 109 L 312 109 Z M 312 68 " clip-rule="nonzero"/></clipPath><clipPath id="43e28de05c"><path d="M 102.097656 306 L 165 306 L 165 317.472656 L 102.097656 317.472656 Z M 102.097656 306 " clip-rule="nonzero"/></clipPath><clipPath id="bedea5ec04"><path d="M 102 57.222656 L 165 57.222656 L 165 69 L 102 69 Z M 102 57.222656 " clip-rule="nonzero"/></clipPath></defs><path fill="#37b768" d="M 261.261719 283.535156 C 258.136719 283.535156 255.59375 286.058594 255.59375 289.1875 L 255.59375 294.84375 C 255.59375 297.960938 258.136719 300.5 261.261719 300.5 C 264.386719 300.5 266.929688 297.960938 266.929688 294.84375 L 266.929688 289.1875 C 266.929688 286.058594 264.386719 283.535156 261.261719 283.535156 Z M 261.261719 311.808594 C 251.878906 311.808594 244.25 304.195312 244.25 294.84375 L 244.25 289.1875 C 244.25 279.824219 251.878906 272.210938 261.261719 272.210938 C 270.644531 272.210938 278.261719 279.824219 278.261719 289.1875 L 278.261719 294.84375 C 278.261719 304.195312 270.644531 311.808594 261.261719 311.808594 " fill-opacity="1" fill-rule="nonzero"/><path fill="#37b768" d="M 215.902344 283.535156 C 212.78125 283.535156 210.238281 286.058594 210.238281 289.1875 L 210.238281 294.84375 C 210.238281 297.960938 212.78125 300.5 215.902344 300.5 C 219.039062 300.5 221.570312 297.960938 221.570312 294.84375 L 221.570312 289.1875 C 221.570312 286.058594 219.039062 283.535156 215.902344 283.535156 Z M 215.902344 311.808594 C 206.519531 311.808594 198.902344 304.195312 198.902344 294.84375 L 198.902344 289.1875 C 198.902344 279.824219 206.519531 272.210938 215.902344 272.210938 C 225.285156 272.210938 232.914062 279.824219 232.914062 289.1875 L 232.914062 294.84375 C 232.914062 304.195312 225.285156 311.808594 215.902344 311.808594 " fill-opacity="1" fill-rule="nonzero"/><g clip-path="url(#4a64e74b64)"><path fill="#37b768" d="M 306.621094 283.535156 C 303.484375 283.535156 300.941406 286.058594 300.941406 289.1875 L 300.941406 294.84375 C 300.941406 297.960938 303.484375 300.5 306.621094 300.5 C 309.742188 300.5 312.285156 297.960938 312.285156 294.84375 L 312.285156 289.1875 C 312.285156 286.058594 309.742188 283.535156 306.621094 283.535156 Z M 306.621094 311.808594 C 297.238281 311.808594 289.609375 304.195312 289.609375 294.84375 L 289.609375 289.1875 C 289.609375 279.824219 297.238281 272.210938 306.621094 272.210938 C 315.988281 272.210938 323.621094 279.824219 323.621094 289.1875 L 323.621094 294.84375 C 323.621094 304.195312 315.988281 311.808594 306.621094 311.808594 " fill-opacity="1" fill-rule="nonzero"/></g><path fill="#37b768" d="M 215.902344 260.898438 C 206.519531 260.898438 198.902344 253.285156 198.902344 243.921875 L 198.902344 238.265625 C 198.902344 233.730469 200.667969 229.46875 203.882812 226.257812 C 206.097656 224.050781 209.683594 224.050781 211.898438 226.257812 C 214.109375 228.46875 214.109375 232.058594 211.898438 234.269531 C 210.828125 235.332031 210.238281 236.753906 210.238281 238.265625 L 210.238281 243.921875 C 210.238281 247.039062 212.78125 249.578125 215.902344 249.578125 C 218.039062 249.578125 219.960938 248.40625 220.9375 246.527344 C 222.398438 243.75 225.800781 242.671875 228.59375 244.132812 C 231.375 245.566406 232.441406 248.984375 230.992188 251.757812 C 228.054688 257.386719 222.269531 260.898438 215.902344 260.898438 " fill-opacity="1" fill-rule="nonzero"/><g clip-path="url(#320deecd3a)"><path fill="#37b768" d="M 317.953125 260.898438 C 314.816406 260.898438 312.285156 258.363281 312.285156 255.230469 L 312.285156 226.941406 C 312.285156 223.824219 314.816406 221.289062 317.953125 221.289062 C 321.089844 221.289062 323.621094 223.824219 323.621094 226.941406 L 323.621094 255.230469 C 323.621094 258.363281 321.089844 260.898438 317.953125 260.898438 " fill-opacity="1" fill-rule="nonzero"/></g><path fill="#37b768" d="M 295.273438 260.898438 C 292.136719 260.898438 289.609375 258.363281 289.609375 255.230469 L 289.609375 226.941406 C 289.609375 223.824219 292.136719 221.289062 295.273438 221.289062 C 298.410156 221.289062 300.941406 223.824219 300.941406 226.941406 L 300.941406 255.230469 C 300.941406 258.363281 298.410156 260.898438 295.273438 260.898438 " fill-opacity="1" fill-rule="nonzero"/><g clip-path="url(#ee2c33520d)"><path fill="#37b768" d="M 306.621094 130.765625 C 303.484375 130.765625 300.941406 133.304688 300.941406 136.421875 L 300.941406 142.078125 C 300.941406 145.195312 303.484375 147.730469 306.621094 147.730469 C 309.742188 147.730469 312.285156 145.195312 312.285156 142.078125 L 312.285156 136.421875 C 312.285156 133.304688 309.742188 130.765625 306.621094 130.765625 Z M 306.621094 159.054688 C 297.238281 159.054688 289.609375 151.441406 289.609375 142.078125 L 289.609375 136.421875 C 289.609375 127.058594 297.238281 119.445312 306.621094 119.445312 C 315.988281 119.445312 323.621094 127.058594 323.621094 136.421875 L 323.621094 142.078125 C 323.621094 151.441406 315.988281 159.054688 306.621094 159.054688 " fill-opacity="1" fill-rule="nonzero"/></g><g clip-path="url(#c7e0dc1f97)"><path fill="#37b768" d="M 306.621094 181.6875 C 303.484375 181.6875 300.941406 184.226562 300.941406 187.34375 L 300.941406 193 C 300.941406 196.117188 303.484375 198.65625 306.621094 198.65625 C 309.742188 198.65625 312.285156 196.117188 312.285156 193 L 312.285156 187.34375 C 312.285156 184.226562 309.742188 181.6875 306.621094 181.6875 Z M 306.621094 209.976562 C 297.238281 209.976562 289.609375 202.363281 289.609375 193 L 289.609375 187.34375 C 289.609375 177.980469 297.238281 170.367188 306.621094 170.367188 C 315.988281 170.367188 323.621094 177.980469 323.621094 187.34375 L 323.621094 193 C 323.621094 202.363281 315.988281 209.976562 306.621094 209.976562 " fill-opacity="1" fill-rule="nonzero"/></g><path fill="#37b768" d="M 261.261719 79.84375 C 258.136719 79.84375 255.59375 82.382812 255.59375 85.5 L 255.59375 91.15625 C 255.59375 94.273438 258.136719 96.824219 261.261719 96.824219 C 264.386719 96.824219 266.929688 94.273438 266.929688 91.15625 L 266.929688 85.5 C 266.929688 82.382812 264.386719 79.84375 261.261719 79.84375 Z M 261.261719 108.132812 C 251.878906 108.132812 244.25 100.519531 244.25 91.15625 L 244.25 85.5 C 244.25 76.136719 251.878906 68.535156 261.261719 68.535156 C 270.644531 68.535156 278.261719 76.136719 278.261719 85.5 L 278.261719 91.15625 C 278.261719 100.519531 270.644531 108.132812 261.261719 108.132812 " fill-opacity="1" fill-rule="nonzero"/><path fill="#37b768" d="M 227.25 108.132812 C 224.113281 108.132812 221.570312 105.59375 221.570312 102.476562 L 221.570312 74.191406 C 221.570312 71.058594 224.113281 68.535156 227.25 68.535156 C 230.371094 68.535156 232.914062 71.058594 232.914062 74.191406 L 232.914062 102.476562 C 232.914062 105.59375 230.371094 108.132812 227.25 108.132812 " fill-opacity="1" fill-rule="nonzero"/><g clip-path="url(#69d5ddbbf0)"><path fill="#37b768" d="M 317.953125 108.132812 C 314.816406 108.132812 312.285156 105.59375 312.285156 102.476562 L 312.285156 74.191406 C 312.285156 71.058594 314.816406 68.535156 317.953125 68.535156 C 321.089844 68.535156 323.621094 71.058594 323.621094 74.191406 L 323.621094 102.476562 C 323.621094 105.59375 321.089844 108.132812 317.953125 108.132812 " fill-opacity="1" fill-rule="nonzero"/></g><path fill="#37b768" d="M 295.273438 108.132812 C 292.136719 108.132812 289.609375 105.59375 289.609375 102.476562 L 289.609375 74.191406 C 289.609375 71.058594 292.136719 68.535156 295.273438 68.535156 C 298.410156 68.535156 300.941406 71.058594 300.941406 74.191406 L 300.941406 102.476562 C 300.941406 105.59375 298.410156 108.132812 295.273438 108.132812 " fill-opacity="1" fill-rule="nonzero"/><path fill="#37b768" d="M 181.890625 311.808594 C 178.753906 311.808594 176.222656 309.285156 176.222656 306.152344 L 176.222656 277.863281 C 176.222656 274.75 178.753906 272.210938 181.890625 272.210938 C 185.027344 272.210938 187.558594 274.75 187.558594 277.863281 L 187.558594 306.152344 C 187.558594 309.285156 185.027344 311.808594 181.890625 311.808594 " fill-opacity="1" fill-rule="nonzero"/><path fill="#5bb1e6" d="M 85.507812 249.578125 L 68.507812 249.578125 C 65.371094 249.578125 62.839844 247.050781 62.839844 243.921875 C 62.839844 240.804688 65.371094 238.265625 68.507812 238.265625 L 85.507812 238.265625 C 88.644531 238.265625 91.1875 240.804688 91.1875 243.921875 C 91.1875 247.050781 88.644531 249.578125 85.507812 249.578125 " fill-opacity="1" fill-rule="nonzero"/><path fill="#5bb1e6" d="M 62.839844 266.554688 C 62.839844 263.4375 65.382812 260.898438 68.507812 260.898438 C 71.617188 260.898438 74.171875 263.4375 74.171875 266.554688 C 74.171875 269.660156 71.617188 272.210938 68.507812 272.210938 C 65.382812 272.210938 62.839844 269.660156 62.839844 266.554688 Z M 85.507812 266.554688 C 85.507812 263.4375 88.0625 260.898438 91.1875 260.898438 C 94.296875 260.898438 96.851562 263.4375 96.851562 266.554688 C 96.851562 269.660156 94.296875 272.210938 91.1875 272.210938 C 88.0625 272.210938 85.507812 269.660156 85.507812 266.554688 Z M 108.1875 266.554688 C 108.1875 263.4375 110.742188 260.898438 113.851562 260.898438 C 116.976562 260.898438 119.53125 263.4375 119.53125 266.554688 C 119.53125 269.660156 116.976562 272.210938 113.851562 272.210938 C 110.742188 272.210938 108.1875 269.660156 108.1875 266.554688 Z M 130.867188 266.554688 C 130.867188 263.4375 133.421875 260.898438 136.53125 260.898438 C 139.65625 260.898438 142.210938 263.4375 142.210938 266.554688 C 142.210938 269.660156 139.65625 272.210938 136.53125 272.210938 C 133.421875 272.210938 130.867188 269.660156 130.867188 266.554688 Z M 153.542969 266.554688 C 153.542969 263.4375 156.101562 260.898438 159.210938 260.898438 C 162.335938 260.898438 164.878906 263.4375 164.878906 266.554688 C 164.878906 269.660156 162.335938 272.210938 159.210938 272.210938 C 156.101562 272.210938 153.542969 269.660156 153.542969 266.554688 " fill-opacity="1" fill-rule="nonzero"/><path fill="#5bb1e6" d="M 85.507812 289.1875 C 85.507812 286.070312 88.0625 283.535156 91.1875 283.535156 C 94.296875 283.535156 96.851562 286.070312 96.851562 289.1875 C 96.851562 292.292969 94.296875 294.84375 91.1875 294.84375 C 88.0625 294.84375 85.507812 292.292969 85.507812 289.1875 Z M 108.1875 289.1875 C 108.1875 286.070312 110.742188 283.535156 113.851562 283.535156 C 116.976562 283.535156 119.53125 286.070312 119.53125 289.1875 C 119.53125 292.292969 116.976562 294.84375 113.851562 294.84375 C 110.742188 294.84375 108.1875 292.292969 108.1875 289.1875 Z M 130.867188 289.1875 C 130.867188 286.070312 133.421875 283.535156 136.53125 283.535156 C 139.65625 283.535156 142.210938 286.070312 142.210938 289.1875 C 142.210938 292.292969 139.65625 294.84375 136.53125 294.84375 C 133.421875 294.84375 130.867188 292.292969 130.867188 289.1875 Z M 153.542969 289.1875 C 153.542969 286.070312 156.101562 283.535156 159.210938 283.535156 C 162.335938 283.535156 164.878906 286.070312 164.878906 289.1875 C 164.878906 292.292969 162.335938 294.84375 159.210938 294.84375 C 156.101562 294.84375 153.542969 292.292969 153.542969 289.1875 " fill-opacity="1" fill-rule="nonzero"/><g clip-path="url(#43e28de05c)"><path fill="#5bb1e6" d="M 159.210938 317.476562 L 108.1875 317.476562 C 105.050781 317.476562 102.519531 314.9375 102.519531 311.808594 C 102.519531 308.691406 105.050781 306.152344 108.1875 306.152344 L 159.210938 306.152344 C 162.347656 306.152344 164.878906 308.691406 164.878906 311.808594 C 164.878906 314.9375 162.347656 317.476562 159.210938 317.476562 " fill-opacity="1" fill-rule="nonzero"/></g><g clip-path="url(#bedea5ec04)"><path fill="#5bb1e6" d="M 159.210938 68.535156 L 108.1875 68.535156 C 105.050781 68.535156 102.519531 65.996094 102.519531 62.867188 C 102.519531 59.75 105.050781 57.210938 108.1875 57.210938 L 159.210938 57.210938 C 162.347656 57.210938 164.878906 59.75 164.878906 62.867188 C 164.878906 65.996094 162.347656 68.535156 159.210938 68.535156 " fill-opacity="1" fill-rule="nonzero"/></g><path fill="#5bb1e6" d="M 85.507812 85.5 C 85.507812 82.382812 88.0625 79.84375 91.1875 79.84375 C 94.296875 79.84375 96.851562 82.382812 96.851562 85.5 C 96.851562 88.617188 94.296875 91.15625 91.1875 91.15625 C 88.0625 91.15625 85.507812 88.617188 85.507812 85.5 Z M 108.1875 85.5 C 108.1875 82.382812 110.742188 79.84375 113.851562 79.84375 C 116.976562 79.84375 119.53125 82.382812 119.53125 85.5 C 119.53125 88.617188 116.976562 91.15625 113.851562 91.15625 C 110.742188 91.15625 108.1875 88.617188 108.1875 85.5 Z M 130.867188 85.5 C 130.867188 82.382812 133.421875 79.84375 136.53125 79.84375 C 139.65625 79.84375 142.210938 82.382812 142.210938 85.5 C 142.210938 88.617188 139.65625 91.15625 136.53125 91.15625 C 133.421875 91.15625 130.867188 88.617188 130.867188 85.5 Z M 153.542969 85.5 C 153.542969 82.382812 156.101562 79.84375 159.210938 79.84375 C 162.335938 79.84375 164.878906 82.382812 164.878906 85.5 C 164.878906 88.617188 162.335938 91.15625 159.210938 91.15625 C 156.101562 91.15625 153.542969 88.617188 153.542969 85.5 " fill-opacity="1" fill-rule="nonzero"/><path fill="#5bb1e6" d="M 62.839844 108.132812 C 62.839844 105.015625 65.382812 102.476562 68.507812 102.476562 C 71.617188 102.476562 74.171875 105.015625 74.171875 108.132812 C 74.171875 111.238281 71.617188 113.789062 68.507812 113.789062 C 65.382812 113.789062 62.839844 111.238281 62.839844 108.132812 Z M 85.507812 108.132812 C 85.507812 105.015625 88.0625 102.476562 91.1875 102.476562 C 94.296875 102.476562 96.851562 105.015625 96.851562 108.132812 C 96.851562 111.238281 94.296875 113.789062 91.1875 113.789062 C 88.0625 113.789062 85.507812 111.238281 85.507812 108.132812 Z M 108.1875 108.132812 C 108.1875 105.015625 110.742188 102.476562 113.851562 102.476562 C 116.976562 102.476562 119.53125 105.015625 119.53125 108.132812 C 119.53125 111.238281 116.976562 113.789062 113.851562 113.789062 C 110.742188 113.789062 108.1875 111.238281 108.1875 108.132812 Z M 130.867188 108.132812 C 130.867188 105.015625 133.421875 102.476562 136.53125 102.476562 C 139.65625 102.476562 142.210938 105.015625 142.210938 108.132812 C 142.210938 111.238281 139.65625 113.789062 136.53125 113.789062 C 133.421875 113.789062 130.867188 111.238281 130.867188 108.132812 Z M 153.542969 108.132812 C 153.542969 105.015625 156.101562 102.476562 159.210938 102.476562 C 162.335938 102.476562 164.878906 105.015625 164.878906 108.132812 C 164.878906 111.238281 162.335938 113.789062 159.210938 113.789062 C 156.101562 113.789062 153.542969 111.238281 153.542969 108.132812 " fill-opacity="1" fill-rule="nonzero"/><path fill="#5bb1e6" d="M 96.851562 136.421875 L 68.507812 136.421875 C 65.371094 136.421875 62.839844 133.882812 62.839844 130.765625 C 62.839844 127.636719 65.371094 125.097656 68.507812 125.097656 L 96.851562 125.097656 C 99.988281 125.097656 102.519531 127.636719 102.519531 130.765625 C 102.519531 133.882812 99.988281 136.421875 96.851562 136.421875 " fill-opacity="1" fill-rule="nonzero"/><path fill="#5bb1e6" d="M 91.1875 159.054688 L 57.160156 159.054688 C 54.023438 159.054688 51.496094 156.515625 51.496094 153.402344 C 51.496094 150.269531 54.023438 147.730469 57.160156 147.730469 L 91.1875 147.730469 C 94.308594 147.730469 96.851562 150.269531 96.851562 153.402344 C 96.851562 156.515625 94.308594 159.054688 91.1875 159.054688 " fill-opacity="1" fill-rule="nonzero"/><path fill="#5bb1e6" d="M 51.496094 176.019531 C 51.496094 172.917969 54.050781 170.367188 57.160156 170.367188 C 60.285156 170.367188 62.839844 172.917969 62.839844 176.019531 C 62.839844 179.136719 60.285156 181.6875 57.160156 181.6875 C 54.050781 181.6875 51.496094 179.136719 51.496094 176.019531 Z M 74.171875 176.019531 C 74.171875 172.917969 76.730469 170.367188 79.839844 170.367188 C 82.964844 170.367188 85.507812 172.917969 85.507812 176.019531 C 85.507812 179.136719 82.964844 181.6875 79.839844 181.6875 C 76.730469 181.6875 74.171875 179.136719 74.171875 176.019531 " fill-opacity="1" fill-rule="nonzero"/><path fill="#5bb1e6" d="M 51.496094 198.65625 C 51.496094 195.539062 54.050781 193 57.160156 193 C 60.285156 193 62.839844 195.539062 62.839844 198.65625 C 62.839844 201.769531 60.285156 204.308594 57.160156 204.308594 C 54.050781 204.308594 51.496094 201.769531 51.496094 198.65625 Z M 74.171875 198.65625 C 74.171875 195.539062 76.730469 193 79.839844 193 C 82.964844 193 85.507812 195.539062 85.507812 198.65625 C 85.507812 201.769531 82.964844 204.308594 79.839844 204.308594 C 76.730469 204.308594 74.171875 201.769531 74.171875 198.65625 " fill-opacity="1" fill-rule="nonzero"/><path fill="#5bb1e6" d="M 79.839844 226.941406 L 57.160156 226.941406 C 54.023438 226.941406 51.496094 224.417969 51.496094 221.289062 C 51.496094 218.171875 54.023438 215.632812 57.160156 215.632812 L 79.839844 215.632812 C 82.976562 215.632812 85.507812 218.171875 85.507812 221.289062 C 85.507812 224.417969 82.976562 226.941406 79.839844 226.941406 " fill-opacity="1" fill-rule="nonzero"/><path fill="#d3b2de" d="M 272.503906 217.054688 C 273.226562 228.496094 270.128906 238.238281 258.914062 238.238281 C 250.785156 238.238281 238.582031 232.609375 235.0625 225.246094 C 230.832031 216.34375 224.917969 209.976562 221.570312 209.976562 L 153.542969 209.976562 C 150.199219 209.976562 144.308594 216.355469 140.050781 225.257812 C 136.53125 232.609375 124.328125 238.265625 116.210938 238.265625 C 104.996094 238.265625 101.898438 228.519531 102.613281 217.078125 C 102.769531 214.777344 108.9375 173.179688 114.960938 152.796875 C 117.804688 143.128906 126.410156 136.433594 136.28125 136.433594 L 238.804688 136.421875 C 248.675781 136.421875 257.28125 143.101562 260.140625 152.769531 C 266.164062 173.140625 272.359375 214.738281 272.503906 217.054688 " fill-opacity="1" fill-rule="nonzero"/><path fill="#7d3fa3" d="M 238.820312 142.078125 C 238.820312 142.078125 238.820312 142.078125 238.804688 142.078125 L 136.28125 142.105469 C 128.953125 142.105469 122.5625 147.035156 120.390625 154.386719 C 114.578125 174.074219 108.515625 214.75 108.277344 217.488281 C 107.882812 223.761719 108.832031 228.496094 110.980469 230.757812 C 111.71875 231.558594 113.074219 232.609375 116.210938 232.609375 C 123.039062 232.609375 132.65625 227.574219 134.9375 222.8125 C 136.414062 219.722656 144.253906 204.308594 153.542969 204.308594 L 221.570312 204.308594 C 228.804688 204.308594 236.117188 214.277344 240.191406 222.800781 C 242.457031 227.5625 252.078125 232.585938 258.914062 232.585938 C 262.039062 232.585938 263.398438 231.53125 264.148438 230.742188 C 266.28125 228.46875 267.246094 223.746094 266.835938 217.433594 C 266.585938 214.566406 260.511719 174.035156 254.699219 154.359375 C 252.523438 147.023438 246.148438 142.078125 238.820312 142.078125 Z M 116.210938 243.921875 C 110.703125 243.921875 106.050781 242.054688 102.71875 238.515625 C 98.289062 233.808594 96.339844 226.46875 96.957031 216.722656 C 97.101562 214.4375 103.363281 172.0625 109.515625 151.191406 C 113.128906 138.988281 123.882812 130.78125 136.28125 130.78125 L 238.804688 130.765625 L 238.820312 130.765625 C 251.21875 130.765625 261.972656 138.960938 265.570312 151.164062 C 271.75 172.050781 277.996094 214.34375 278.15625 216.699219 C 278.773438 226.441406 276.839844 233.769531 272.410156 238.488281 C 269.089844 242.027344 264.410156 243.894531 258.914062 243.894531 C 248.875 243.894531 234.511719 237.242188 229.949219 227.667969 C 226.605469 220.667969 222.636719 216.472656 221.082031 215.632812 L 154.046875 215.632812 C 152.503906 216.472656 148.523438 220.667969 145.164062 227.691406 C 140.589844 237.253906 126.238281 243.921875 116.210938 243.921875 " fill-opacity="1" fill-rule="nonzero"/><path fill="#ffffff" d="M 204.570312 159.054688 L 176.222656 159.054688 L 170.542969 136.421875 L 210.238281 136.421875 L 204.570312 159.054688 " fill-opacity="1" fill-rule="nonzero"/><path fill="#7d3fa3" d="M 180.652344 153.402344 L 200.140625 153.402344 L 202.976562 142.078125 L 177.820312 142.078125 Z M 204.570312 164.710938 L 176.222656 164.710938 C 173.613281 164.710938 171.347656 162.949219 170.730469 160.421875 L 165.050781 137.789062 C 164.628906 136.105469 165.007812 134.316406 166.078125 132.9375 C 167.15625 131.570312 168.804688 130.765625 170.542969 130.765625 L 210.238281 130.765625 C 211.976562 130.765625 213.636719 131.570312 214.703125 132.9375 C 215.769531 134.316406 216.152344 136.105469 215.730469 137.789062 L 210.066406 160.421875 C 209.433594 162.949219 207.167969 164.710938 204.570312 164.710938 " fill-opacity="1" fill-rule="nonzero"/><path fill="#d3b2de" d="M 232.902344 164.710938 L 232.914062 187.332031 L 232.902344 164.710938 " fill-opacity="1" fill-rule="nonzero"/><path fill="#7d3fa3" d="M 232.914062 192.984375 C 229.792969 192.984375 227.25 190.460938 227.25 187.34375 L 227.234375 164.710938 C 227.234375 161.582031 229.78125 159.054688 232.902344 159.054688 C 236.039062 159.054688 238.582031 161.582031 238.582031 164.710938 L 238.582031 187.332031 C 238.582031 190.460938 236.050781 192.984375 232.914062 192.984375 " fill-opacity="1" fill-rule="nonzero"/><path fill="#7d3fa3" d="M 221.570312 181.6875 C 218.445312 181.6875 215.902344 179.152344 215.902344 176.019531 C 215.902344 172.902344 218.445312 170.367188 221.570312 170.367188 L 244.25 170.367188 C 247.371094 170.367188 249.914062 172.890625 249.914062 176.019531 C 249.914062 179.152344 247.386719 181.675781 244.25 181.675781 L 221.570312 181.6875 " fill-opacity="1" fill-rule="nonzero"/><path fill="#7d3fa3" d="M 134.09375 161.9375 C 131.3125 160.582031 130.128906 157.1875 131.550781 154.414062 C 132.90625 151.585938 136.308594 150.453125 139.089844 151.808594 C 141.921875 153.164062 143.109375 156.570312 141.699219 159.332031 C 140.734375 161.371094 138.691406 162.554688 136.585938 162.554688 C 135.792969 162.554688 134.949219 162.332031 134.09375 161.9375 Z M 154.507812 171.890625 C 151.671875 170.535156 150.539062 167.144531 151.898438 164.316406 C 153.253906 161.542969 156.65625 160.359375 159.5 161.710938 C 162.269531 163.121094 163.46875 166.527344 162.042969 169.300781 C 161.082031 171.324219 159.09375 172.457031 156.996094 172.457031 C 156.152344 172.457031 155.296875 172.300781 154.507812 171.890625 " fill-opacity="1" fill-rule="nonzero"/><path fill="#7d3fa3" d="M 138.523438 182.992188 C 135.742188 181.625 134.542969 178.230469 135.914062 175.457031 C 137.324219 172.628906 140.734375 171.445312 143.503906 172.851562 C 146.335938 174.21875 147.46875 177.613281 146.113281 180.386719 C 145.148438 182.425781 143.109375 183.609375 141.011719 183.609375 C 140.15625 183.609375 139.3125 183.386719 138.523438 182.992188 Z M 158.933594 192.945312 C 156.101562 191.578125 154.902344 188.199219 156.324219 185.359375 C 157.683594 182.582031 161.082031 181.398438 163.863281 182.753906 C 166.695312 184.175781 167.894531 187.566406 166.472656 190.34375 C 165.496094 192.382812 163.519531 193.511719 161.425781 193.511719 C 160.570312 193.511719 159.726562 193.339844 158.933594 192.945312 " fill-opacity="1" fill-rule="nonzero"/><path fill="#37b768" d="M 193.222656 79.84375 C 190.101562 79.84375 187.558594 82.382812 187.558594 85.5 L 187.558594 91.15625 C 187.558594 94.273438 190.101562 96.824219 193.222656 96.824219 C 196.359375 96.824219 198.902344 94.273438 198.902344 91.15625 L 198.902344 85.5 C 198.902344 82.382812 196.359375 79.84375 193.222656 79.84375 Z M 193.222656 108.132812 C 183.855469 108.132812 176.222656 100.519531 176.222656 91.15625 L 176.222656 85.5 C 176.222656 76.136719 183.855469 68.535156 193.222656 68.535156 C 202.605469 68.535156 210.238281 76.136719 210.238281 85.5 L 210.238281 91.15625 C 210.238281 100.519531 202.605469 108.132812 193.222656 108.132812 " fill-opacity="1" fill-rule="nonzero"/></svg>